<svg width="250" height="211" viewBox="0 0 250 211" fill="none" xmlns="http://www.w3.org/2000/svg">
<path d="M242 58.8696L126.139 8.17429C125.885 8.06312 125.596 8.06246 125.341 8.17245L8.60339 58.6089C8.23715 58.7671 8 59.1279 8 59.5269V88.25C8 88.8023 8.44772 89.25 9 89.25H241C241.552 89.25 242 89.6977 242 90.25V126.402C242 126.954 241.552 127.402 241 127.402H9.00001C8.44772 127.402 8 127.85 8 128.402V163.848C8 164.4 8.44772 164.848 9 164.848H241C241.552 164.848 242 165.296 242 165.848V202C242 202.552 241.552 203 241 203H8" stroke="#4B7BEC" stroke-width="15"/>
</svg>
